<svg width="60" height="60" viewBox="0 0 60 60" fill="none" xmlns="http://www.w3.org/2000/svg">
<g clip-path="url(#clip0_56_754)">
<circle cx="30" cy="30" r="30" fill="#DC3030"/>
<path fill-rule="evenodd" clip-rule="evenodd" d="M10 30C10 18.9543 18.9543 10 30 10C41.0457 10 50 18.9543 50 30C50 41.0457 41.0457 50 30 50C18.9543 50 10 41.0457 10 30ZM30 11.5385C20.7325 11.5385 13.0598 18.3671 11.7393 27.2674C13.062 24.998 15.2447 23.2027 18.0245 22.4579C21.2283 21.5994 24.4461 22.4091 26.8716 24.1919L34.5112 17.8571L34.5361 17.8899C35.4844 17.2661 36.6082 16.9026 37.8146 16.9026C38.0778 16.9026 38.3368 16.9198 38.5907 16.953C39.1921 16.5988 39.8854 16.3948 40.6246 16.3948C43.0298 16.3948 44.8647 18.5052 44.8647 20.9604C44.8647 21.9929 44.5457 22.9527 44.0005 23.7241C43.9278 25.3905 43.2597 26.9006 42.2069 28.0155L42.2369 28.0551L34.2429 34.6582C36.2972 36.1173 38.9372 36.7635 41.5773 36.0561C46.4325 34.7551 49.0244 29.6702 47.8076 25.1289C47.8008 25.1036 47.7954 25.0782 47.7912 25.0529C45.6287 17.2592 38.4824 11.5385 30 11.5385ZM18.4227 23.9439C20.9948 23.2547 23.6009 23.8327 25.6447 25.2092L17.5708 31.904C17.5249 31.941 17.4796 31.9786 17.4348 32.0168L16.8531 32.4992L16.889 32.5422C15.7999 33.7229 15.1353 35.3325 15.1353 37.0872C15.1353 37.5862 15.1887 38.0731 15.2901 38.5414C15.2875 38.6066 15.2862 38.6721 15.2862 38.7379C15.2862 41.1699 17.0867 43.2637 19.4586 43.3028C20.0489 43.4993 20.6771 43.6052 21.3278 43.6052C23.0205 43.6052 24.5384 42.8972 25.6478 41.7578L33.0208 35.6676C35.4452 37.5282 38.6921 38.4219 41.9755 37.5421C44.8121 36.7821 46.9812 34.9361 48.2767 32.6225C47.0034 41.5765 39.3057 48.4615 30 48.4615C21.4527 48.4615 14.262 42.653 12.16 34.7679C12.1558 34.7404 12.15 34.7128 12.1426 34.6853C10.9323 30.1683 13.6367 25.2263 18.4227 23.9439ZM27.4118 38.3053L32.9033 33.7693L32.9073 33.7653L32.91 33.7626C33.8421 32.8557 34.4342 31.5453 34.4342 30.0779C34.4342 27.285 32.3089 25.0984 29.7801 25.0984C28.7319 25.0984 27.7622 25.4687 26.9794 26.1011L21.5841 30.5748C24.9233 30.7167 27.5203 33.6186 27.5203 37.0872C27.5203 37.5026 27.4831 37.9099 27.4118 38.3053ZM35.9726 30.0779C35.9726 30.505 35.9335 30.9231 35.8587 31.328L40.566 27.4398L40.6834 27.3414C41.7644 26.4344 42.4687 25.0211 42.4687 23.4206C42.4687 20.6276 40.3433 18.4411 37.8146 18.4411C36.7106 18.4411 35.6932 18.8519 34.8898 19.5475L34.269 20.085L34.2557 20.0676L30.0373 23.5654C33.3761 23.7078 35.9726 26.6096 35.9726 30.0779ZM22.6476 41.8623C24.5546 41.2576 25.9819 39.376 25.9819 37.0872C25.9819 34.2943 23.8566 32.1078 21.3278 32.1078C19.4992 32.1078 17.8815 33.2512 17.1259 34.9405L18.3992 33.7847C19.1519 33.0107 20.1819 32.5217 21.3278 32.5217C23.733 32.5217 25.5679 34.6321 25.5679 37.0872C25.5679 38.5147 24.9578 39.8053 23.9811 40.6495L22.6476 41.8623ZM41.3002 18.0307C42.1214 18.621 42.7981 19.4133 43.2696 20.3356C43.0562 19.1829 42.264 18.3126 41.3002 18.0307ZM23.7558 38.4154C23.6226 36.3901 22.2446 34.6605 20.3619 34.2597C20.6638 34.1299 20.9897 34.0602 21.3278 34.0602C22.7565 34.0602 24.0295 35.3491 24.0295 37.0872C24.0295 37.567 23.9302 38.0169 23.7558 38.4154ZM21.172 41.1247L21.3985 40.9187C21.9036 40.3782 22.228 39.6153 22.228 38.7379C22.228 36.9997 20.955 35.7108 19.5263 35.7108C18.0976 35.7108 16.8246 36.9997 16.8246 38.7379C16.8246 40.476 18.0976 41.7649 19.5263 41.7649C20.1335 41.7649 20.7125 41.5321 21.1777 41.131L21.172 41.1247Z" fill="white"/>
</g>
<defs>
<clipPath id="clip0_56_754">
<rect width="60" height="60" fill="white"/>
</clipPath>
</defs>
</svg>
