<svg width="40" height="41" viewBox="0 0 40 41" fill="none" xmlns="http://www.w3.org/2000/svg">
  <path d="M9.26976 19.25H32.5023C32.8338 19.25 33.1517 19.3817 33.3861 19.6161C33.6206 19.8505 33.7523 20.1685 33.7523 20.5C33.7523 20.8315 33.6206 21.1495 33.3861 21.3839C33.1517 21.6183 32.8338 21.75 32.5023 21.75H9.26976L18.3873 30.865C18.622 31.0997 18.7538 31.4181 18.7538 31.75C18.7538 32.0819 18.622 32.4003 18.3873 32.635C18.1525 32.8697 17.8342 33.0016 17.5023 33.0016C17.1703 33.0016 16.852 32.8697 16.6173 32.635L5.36726 21.385C5.25085 21.2689 5.15849 21.1309 5.09548 20.9791C5.03246 20.8272 5.00002 20.6644 5.00002 20.5C5.00002 20.3356 5.03246 20.1728 5.09548 20.0209C5.15849 19.869 5.25085 19.7311 5.36726 19.615L16.6173 8.36499C16.852 8.13028 17.1703 7.99841 17.5023 7.99841C17.8342 7.99841 18.1525 8.13028 18.3873 8.36499C18.622 8.59971 18.7538 8.91805 18.7538 9.24999C18.7538 9.58193 18.622 9.90028 18.3873 10.135L9.26976 19.25Z" fill="currentColor"/>
</svg>
