<svg width="20" height="20" viewBox="0 0 20 20" fill="none" xmlns="http://www.w3.org/2000/svg">
  <path d="M7.75 6.36364H12.9927L6.04182 13.3145C5.99955 13.3568 5.96603 13.407 5.94316 13.4622C5.92029 13.5174 5.90851 13.5766 5.90851 13.6364C5.90851 13.6961 5.92029 13.7553 5.94316 13.8105C5.96603 13.8657 5.99955 13.9159 6.04182 13.9582C6.08408 14.0004 6.13425 14.034 6.18947 14.0568C6.24468 14.0797 6.30387 14.0915 6.36363 14.0915C6.4234 14.0915 6.48258 14.0797 6.5378 14.0568C6.59302 14.034 6.64319 14.0004 6.68545 13.9582L13.6364 7.00727V12.2727C13.6364 12.3933 13.6843 12.5089 13.7695 12.5941C13.8547 12.6794 13.9704 12.7273 14.0909 12.7273C14.2115 12.7273 14.3271 12.6794 14.4123 12.5941C14.4976 12.5089 14.5455 12.3933 14.5455 12.2727V5.9319C14.5458 5.92432 14.546 5.91672 14.546 5.90909C14.546 5.78839 14.4981 5.67262 14.4127 5.58727C14.3274 5.50192 14.2116 5.45397 14.0909 5.45397C14.0833 5.45397 14.0756 5.45416 14.068 5.45455H7.75C7.62945 5.45455 7.51383 5.50244 7.42859 5.58768C7.34334 5.67292 7.29545 5.78854 7.29545 5.90909C7.29545 6.02964 7.34334 6.14526 7.42859 6.2305C7.51383 6.31575 7.62945 6.36364 7.75 6.36364Z" fill="currentColor"/>
  <path fill-rule="evenodd" clip-rule="evenodd" d="M20 10C20 15.5228 15.5228 20 10 20C4.47715 20 0 15.5228 0 10C0 4.47715 4.47715 0 10 0C15.5228 0 20 4.47715 20 10ZM19.0909 10C19.0909 15.0208 15.0208 19.0909 10 19.0909C4.97923 19.0909 0.909091 15.0208 0.909091 10C0.909091 4.97923 4.97923 0.909091 10 0.909091C15.0208 0.909091 19.0909 4.97923 19.0909 10Z" fill="currentColor"/>
</svg>
