<svg width="40" height="41" viewBox="0 0 40 41" fill="none" xmlns="http://www.w3.org/2000/svg">
  <path d="M29.4825 19.25H6.25C5.91848 19.25 5.60054 19.3817 5.36612 19.6161C5.1317 19.8505 5 20.1685 5 20.5C5 20.8315 5.1317 21.1495 5.36612 21.3839C5.60054 21.6183 5.91848 21.75 6.25 21.75H29.4825L20.365 30.865C20.1303 31.0997 19.9984 31.4181 19.9984 31.75C19.9984 32.0819 20.1303 32.4003 20.365 32.635C20.5997 32.8697 20.9181 33.0016 21.25 33.0016C21.5819 33.0016 21.9003 32.8697 22.135 32.635L33.385 21.385C33.5014 21.2689 33.5938 21.1309 33.6568 20.9791C33.7198 20.8272 33.7522 20.6644 33.7522 20.5C33.7522 20.3356 33.7198 20.1728 33.6568 20.0209C33.5938 19.869 33.5014 19.7311 33.385 19.615L22.135 8.36499C21.9003 8.13028 21.5819 7.99841 21.25 7.99841C20.9181 7.99841 20.5997 8.13028 20.365 8.36499C20.1303 8.59971 19.9984 8.91805 19.9984 9.24999C19.9984 9.58193 20.1303 9.90028 20.365 10.135L29.4825 19.25Z" fill="currentColor"/>
</svg>
