<svg width="20" height="20" viewBox="0 0 20 20" fill="none" xmlns="http://www.w3.org/2000/svg">
  <path d="M16.9225 3.32966C15.6558 2.70982 14.2844 2.25993 12.8557 2C12.8306 2.00038 12.8067 2.01116 12.7891 2.02999C12.6176 2.35991 12.4176 2.7898 12.2843 3.11971C10.769 2.87992 9.22804 2.87992 7.71275 3.11971C7.57941 2.7798 7.37941 2.35991 7.19845 2.02999C7.18893 2.01 7.16035 2 7.13178 2C5.70317 2.25993 4.34123 2.70982 3.065 3.32966C3.05548 3.32966 3.04595 3.33965 3.03643 3.34965C0.445883 7.4186 -0.268423 11.3776 0.0839681 15.2966C0.0839681 15.3166 0.0934922 15.3365 0.11254 15.3465C1.82687 16.6662 3.47454 17.466 5.10315 17.9959C5.13173 18.0059 5.1603 17.9959 5.16982 17.9759C5.55078 17.426 5.89365 16.8462 6.1889 16.2363C6.20795 16.1963 6.1889 16.1563 6.1508 16.1463C5.60793 15.9264 5.09363 15.6665 4.58885 15.3665C4.55076 15.3465 4.55076 15.2866 4.57933 15.2566C4.68409 15.1766 4.78886 15.0866 4.89362 15.0066C4.91267 14.9866 4.94124 14.9866 4.96029 14.9966C8.23657 16.5662 11.77 16.5662 15.0082 14.9966C15.0272 14.9866 15.0558 14.9866 15.0749 15.0066C15.1796 15.0966 15.2844 15.1766 15.3891 15.2666C15.4272 15.2966 15.4272 15.3565 15.3796 15.3765C14.8844 15.6865 14.3605 15.9364 13.8177 16.1563C13.7796 16.1663 13.7701 16.2163 13.7796 16.2463C14.0844 16.8562 14.4272 17.436 14.7987 17.9859C14.8272 17.9959 14.8558 18.0059 14.8844 17.9959C16.5225 17.466 18.1702 16.6662 19.8845 15.3465C19.9036 15.3365 19.9131 15.3166 19.9131 15.2966C20.3321 10.7677 19.2178 6.83875 16.9606 3.34965C16.9511 3.33965 16.9416 3.32966 16.9225 3.32966ZM6.68415 12.9072C5.70317 12.9072 4.8841 11.9574 4.8841 10.7877C4.8841 9.61803 5.68412 8.66827 6.68415 8.66827C7.6937 8.66827 8.49372 9.62803 8.4842 10.7877C8.4842 11.9574 7.68418 12.9072 6.68415 12.9072ZM13.3224 12.9072C12.3414 12.9072 11.5224 11.9574 11.5224 10.7877C11.5224 9.61803 12.3224 8.66827 13.3224 8.66827C14.332 8.66827 15.132 9.62803 15.1225 10.7877C15.1225 11.9574 14.332 12.9072 13.3224 12.9072Z" fill="currentColor"/>
</svg>
