<svg width="20" height="20" viewBox="0 0 20 20" fill="none" xmlns="http://www.w3.org/2000/svg">
  <path d="M14.6243 1.86365C14.2929 1.86365 14.0243 2.13228 14.0243 2.46365V4.61871H11.8692C11.5379 4.61871 11.2692 4.88734 11.2692 5.21871C11.2692 5.55008 11.5379 5.81871 11.8692 5.81871H14.0243V7.97379C14.0243 8.30516 14.2929 8.57379 14.6243 8.57379C14.9557 8.57379 15.2243 8.30516 15.2243 7.97379V5.81871H17.3794C17.7107 5.81871 17.9794 5.55008 17.9794 5.21871C17.9794 4.88734 17.7107 4.61871 17.3794 4.61871H15.2243V2.46365C15.2243 2.13228 14.9557 1.86365 14.6243 1.86365Z" fill="currentColor"/>
  <path fill-rule="evenodd" clip-rule="evenodd" d="M5.16403 11.1537L5.15403 11.1812L3.86028 14.5099H3.66028C3.49452 14.5099 3.33555 14.5758 3.21834 14.693C3.10113 14.8102 3.03528 14.9692 3.03528 15.1349C3.03528 15.3007 3.10113 15.4597 3.21834 15.5769C3.33555 15.6941 3.49452 15.7599 3.66028 15.7599H4.19903C4.25625 15.7679 4.3143 15.7679 4.37153 15.7599H6.16028C6.32604 15.7599 6.48501 15.6941 6.60222 15.5769C6.71943 15.4597 6.78528 15.3007 6.78528 15.1349C6.78528 14.9692 6.71943 14.8102 6.60222 14.693C6.48501 14.5758 6.32604 14.5099 6.16028 14.5099H5.20153L6.16903 12.0187H11.149L12.119 14.5162H11.164C10.9983 14.5162 10.8393 14.582 10.7221 14.6992C10.6049 14.8165 10.539 14.9754 10.539 15.1412C10.539 15.3069 10.6049 15.4659 10.7221 15.5831C10.8393 15.7003 10.9983 15.7662 11.164 15.7662H13.6678C13.8335 15.7662 13.9925 15.7003 14.1097 15.5831C14.2269 15.4659 14.2928 15.3069 14.2928 15.1412C14.2928 14.9754 14.2269 14.8165 14.1097 14.6992C13.9925 14.582 13.8335 14.5162 13.6678 14.5162H13.4603L9.24153 3.65869C9.19588 3.54132 9.11584 3.44047 9.0119 3.36937C8.90796 3.29827 8.78496 3.26022 8.65903 3.26022C8.53309 3.26022 8.4101 3.29827 8.30615 3.36937C8.20221 3.44047 8.12217 3.54132 8.07653 3.65869L5.16403 11.1537ZM6.65403 10.7687L8.65903 5.60994L10.664 10.7687H6.65403Z" fill="currentColor"/>
</svg>
