<svg width="20" height="20" viewBox="0 0 20 20" fill="none" xmlns="http://www.w3.org/2000/svg">
  <path fill-rule="evenodd" clip-rule="evenodd" d="M5.15391 11.1812L5.16391 11.1537L8.07641 3.65869C8.12205 3.54132 8.20209 3.44047 8.30603 3.36937C8.40997 3.29827 8.53297 3.26022 8.65891 3.26022C8.78484 3.26022 8.90784 3.29827 9.01178 3.36937C9.11572 3.44047 9.19576 3.54132 9.24141 3.65869L13.4602 14.5162H13.6677C13.8334 14.5162 13.9924 14.582 14.1096 14.6992C14.2268 14.8165 14.2927 14.9754 14.2927 15.1412C14.2927 15.3069 14.2268 15.4659 14.1096 15.5831C13.9924 15.7003 13.8334 15.7662 13.6677 15.7662H11.1639C10.9981 15.7662 10.8392 15.7003 10.722 15.5831C10.6048 15.4659 10.5389 15.3069 10.5389 15.1412C10.5389 14.9754 10.6048 14.8165 10.722 14.6992C10.8392 14.582 10.9981 14.5162 11.1639 14.5162H12.1189L11.1489 12.0187H6.16891L5.20141 14.5099H6.16016C6.32592 14.5099 6.48489 14.5758 6.6021 14.693C6.71931 14.8102 6.78516 14.9692 6.78516 15.1349C6.78516 15.3007 6.71931 15.4597 6.6021 15.5769C6.48489 15.6941 6.32592 15.7599 6.16016 15.7599H4.37141C4.31418 15.7679 4.25613 15.7679 4.19891 15.7599H3.66016C3.4944 15.7599 3.33542 15.6941 3.21821 15.5769C3.101 15.4597 3.03516 15.3007 3.03516 15.1349C3.03516 14.9692 3.101 14.8102 3.21821 14.693C3.33542 14.5758 3.4944 14.5099 3.66016 14.5099H3.86016L5.15391 11.1812ZM8.65891 5.60994L6.65391 10.7687H10.6639L8.65891 5.60994Z" fill="currentColor"/>
  <path d="M17.103 5.21871C17.103 4.88734 16.8344 4.61871 16.503 4.61871H12.7453C12.414 4.61871 12.1453 4.88734 12.1453 5.21871C12.1453 5.55008 12.414 5.81871 12.7453 5.81871H16.503C16.8344 5.81871 17.103 5.55008 17.103 5.21871Z" fill="currentColor"/>
</svg>
