<svg width="124" height="40" viewBox="0 0 124 40" fill="none" xmlns="http://www.w3.org/2000/svg">
  <path fill-rule="evenodd" clip-rule="evenodd" d="M0 20C0 8.95431 8.95431 0 20 0C31.0457 0 40 8.95431 40 20C40 31.0457 31.0457 40 20 40C8.95431 40 0 31.0457 0 20ZM20 1.53846C10.7325 1.53846 3.05984 8.36715 1.7393 17.2674C3.06196 14.998 5.24472 13.2027 8.02451 12.4579C11.2283 11.5994 14.4461 12.4091 16.8716 14.1919L24.5112 7.85712L24.5361 7.8899C25.4844 7.2661 26.6082 6.90264 27.8146 6.90264C28.0778 6.90264 28.3368 6.91976 28.5907 6.95297C29.1921 6.5988 29.8854 6.39484 30.6246 6.39484C33.0298 6.39484 34.8647 8.50524 34.8647 10.9604C34.8647 11.9929 34.5457 12.9527 34.0005 13.7241C33.9278 15.3905 33.2597 16.9006 32.2069 18.0155L32.2369 18.0551L24.2429 24.6582C26.2972 26.1173 28.9372 26.7635 31.5773 26.0561C36.4325 24.7551 39.0244 19.6702 37.8076 15.1289C37.8008 15.1036 37.7954 15.0782 37.7912 15.0529C35.6287 7.25917 28.4824 1.53846 20 1.53846ZM8.42269 13.9439C10.9948 13.2547 13.6009 13.8327 15.6447 15.2092L7.57078 21.904C7.52495 21.941 7.47963 21.9786 7.43483 22.0168L6.85308 22.4992L6.88898 22.5422C5.79989 23.7229 5.13529 25.3325 5.13529 27.0872C5.13529 27.5862 5.18867 28.0731 5.29008 28.5414C5.28748 28.6066 5.28616 28.6721 5.28616 28.7379C5.28616 31.1699 7.08674 33.2637 9.45857 33.3029C10.0489 33.4993 10.6771 33.6052 11.3278 33.6052C13.0205 33.6052 14.5384 32.8972 15.6478 31.7578L23.0208 25.6676C25.4452 27.5282 28.6921 28.4219 31.9755 27.5421C34.8121 26.7821 36.9812 24.9361 38.2767 22.6225C37.0034 31.5765 29.3057 38.4615 20 38.4615C11.4527 38.4615 4.26199 32.653 2.16002 24.7679C2.15577 24.7404 2.15 24.7128 2.14263 24.6853C0.932301 20.1683 3.63675 15.2263 8.42269 13.9439ZM17.4118 28.3053L22.9033 23.7693C22.9046 23.7679 22.906 23.7666 22.9073 23.7653C22.9082 23.7644 22.9091 23.7635 22.91 23.7626C23.8421 22.8557 24.4342 21.5453 24.4342 20.0779C24.4342 17.285 22.3089 15.0984 19.7801 15.0984C18.7319 15.0984 17.7622 15.4687 16.9794 16.1011L11.5841 20.5748C14.9233 20.7167 17.5203 23.6186 17.5203 27.0872C17.5203 27.5026 17.4831 27.9099 17.4118 28.3053ZM25.9726 20.0779C25.9726 20.505 25.9335 20.9231 25.8587 21.328L30.566 17.4398L30.6834 17.3414C31.7644 16.4344 32.4687 15.0211 32.4687 13.4206C32.4687 10.6276 30.3433 8.4411 27.8146 8.4411C26.7106 8.4411 25.6932 8.8519 24.8898 9.54754L24.269 10.085L24.2557 10.0676L20.0373 13.5654C23.3761 13.7078 25.9726 16.6096 25.9726 20.0779ZM12.6476 31.8623C14.5546 31.2576 15.9819 29.376 15.9819 27.0872C15.9819 24.2943 13.8566 22.1078 11.3278 22.1078C9.49917 22.1078 7.8815 23.2512 7.12593 24.9405L8.39919 23.7848C9.15185 23.0107 10.1819 22.5217 11.3278 22.5217C13.733 22.5217 15.5679 24.6321 15.5679 27.0873C15.5679 28.5147 14.9578 29.8053 13.9811 30.6495L12.6476 31.8623ZM31.3002 8.03072C32.1214 8.62101 32.7981 9.4133 33.2696 10.3356C33.0562 9.18292 32.264 8.3126 31.3002 8.03072ZM13.7558 28.4154C13.6226 26.3901 12.2446 24.6605 10.3619 24.2597C10.6638 24.1299 10.9897 24.0602 11.3278 24.0602C12.7565 24.0602 14.0295 25.3491 14.0295 27.0873C14.0295 27.567 13.9302 28.0169 13.7558 28.4154ZM11.172 31.1247L11.3985 30.9187C11.9036 30.3782 12.228 29.6153 12.228 28.7379C12.228 26.9997 10.955 25.7108 9.5263 25.7108C8.09763 25.7108 6.82462 26.9997 6.82462 28.7379C6.82462 30.476 8.09763 31.7649 9.5263 31.7649C10.1335 31.7649 10.7125 31.5321 11.1777 31.131L11.172 31.1247Z" fill="currentColor"/>
  <path d="M81.9229 18.2692V4.7825H84.5158V9.53923H84.6464C84.8578 9.27808 85.1065 9.05424 85.3926 8.8677C85.691 8.66872 86.0206 8.51327 86.3812 8.40135C86.7543 8.28943 87.1585 8.23347 87.5937 8.23347C88.2404 8.23347 88.8062 8.35161 89.2912 8.58789C89.7762 8.82417 90.1493 9.19725 90.4105 9.70712C90.684 10.217 90.8208 10.8823 90.8208 11.7031V18.2692H88.228V12.1135C88.228 11.8026 88.1906 11.5414 88.116 11.33C88.0414 11.1062 87.9295 10.9258 87.7803 10.789C87.6435 10.6398 87.4694 10.5341 87.258 10.4719C87.0465 10.4097 86.8103 10.3787 86.5491 10.3787C86.1636 10.3787 85.8154 10.4719 85.5045 10.6585C85.1936 10.845 84.9511 11.0999 84.777 11.4233C84.6029 11.7466 84.5158 12.1197 84.5158 12.5425V18.2692H81.9229Z" fill="currentColor"/>
  <path fill-rule="evenodd" clip-rule="evenodd" d="M95.3082 17.9521C96.0544 18.3128 96.9622 18.4931 98.0317 18.4931C99.1261 18.4931 100.04 18.3128 100.774 17.9521C101.52 17.579 102.086 17.0132 102.471 16.2546C102.857 15.4836 103.05 14.5198 103.05 13.3633C103.05 12.1819 102.857 11.2181 102.471 10.4719C102.086 9.71333 101.52 9.15371 100.774 8.79307C100.04 8.41999 99.1261 8.23345 98.0317 8.23345C96.9622 8.23345 96.0544 8.41999 95.3082 8.79307C94.5621 9.15371 93.9963 9.71333 93.6107 10.4719C93.2252 11.2181 93.0325 12.1819 93.0325 13.3633C93.0325 14.5198 93.2252 15.4836 93.6107 16.2546C93.9963 17.0132 94.5621 17.579 95.3082 17.9521ZM99.3934 16.1613C99.0577 16.3728 98.6038 16.4785 98.0317 16.4785C97.4721 16.4785 97.0182 16.3728 96.67 16.1613C96.3342 15.9499 96.0855 15.6266 95.9238 15.1913C95.7622 14.7561 95.6813 14.2213 95.6813 13.5871V13.1394C95.6813 12.5052 95.7622 11.9704 95.9238 11.5352C96.0855 11.0999 96.3342 10.7766 96.67 10.5652C97.0182 10.3413 97.4721 10.2294 98.0317 10.2294C98.6038 10.2294 99.0577 10.3413 99.3934 10.5652C99.7416 10.7766 99.9966 11.0999 100.158 11.5352C100.32 11.9704 100.401 12.5052 100.401 13.1394V13.5871C100.401 14.2213 100.32 14.7561 100.158 15.1913C99.9966 15.6266 99.7416 15.9499 99.3934 16.1613Z" fill="currentColor"/>
  <path d="M106.133 17.6723C106.717 18.2195 107.507 18.4931 108.502 18.4931C108.974 18.4931 109.41 18.4247 109.808 18.2879C110.205 18.1635 110.56 17.9832 110.871 17.7469C111.194 17.5106 111.474 17.2371 111.71 16.9262H111.841L112.027 18.2692H114.154V8.45731H111.561V14.1654C111.561 14.5758 111.474 14.9489 111.3 15.2846C111.126 15.608 110.883 15.8629 110.572 16.0494C110.261 16.236 109.913 16.3292 109.528 16.3292C109.267 16.3292 109.03 16.2981 108.819 16.236C108.607 16.1738 108.427 16.0743 108.278 15.9375C108.141 15.8007 108.035 15.6266 107.961 15.4152C107.886 15.1914 107.849 14.9178 107.849 14.5944V8.45731H105.256V15.0235C105.256 16.2422 105.548 17.1251 106.133 17.6723Z" fill="currentColor"/>
  <path fill-rule="evenodd" clip-rule="evenodd" d="M106.377 34.4546C105.569 34.4546 104.866 34.2743 104.27 33.9137C103.685 33.5406 103.231 32.9747 102.908 32.2162C102.584 31.4576 102.423 30.4876 102.423 29.3062C102.423 28.1247 102.584 27.161 102.908 26.4148C103.244 25.6562 103.697 25.0966 104.27 24.736C104.854 24.3753 105.526 24.195 106.284 24.195C106.707 24.195 107.099 24.2447 107.459 24.3442C107.832 24.4313 108.156 24.5743 108.429 24.7733C108.715 24.9722 108.958 25.2147 109.157 25.5008H109.269V20.744H111.862V34.2308H109.735L109.53 32.9064H109.399C109.076 33.4287 108.653 33.8204 108.131 34.0815C107.609 34.3303 107.024 34.4546 106.377 34.4546ZM107.198 32.3281C107.683 32.3281 108.075 32.2162 108.373 31.9923C108.684 31.7685 108.914 31.4451 109.064 31.0223C109.213 30.5995 109.287 30.0958 109.287 29.5113V29.1756C109.287 28.7403 109.244 28.3424 109.157 27.9817C109.082 27.6211 108.958 27.3226 108.784 27.0864C108.61 26.8376 108.392 26.6511 108.131 26.5267C107.87 26.3899 107.559 26.3215 107.198 26.3215C106.676 26.3215 106.259 26.4272 105.948 26.6387C105.637 26.8376 105.414 27.1485 105.277 27.5714C105.14 27.9817 105.072 28.4978 105.072 29.1196V29.5487C105.072 30.1705 105.14 30.6865 105.277 31.0969C105.414 31.5073 105.637 31.8182 105.948 32.0296C106.259 32.2286 106.676 32.3281 107.198 32.3281Z" fill="currentColor"/>
  <path d="M116.756 34.2308C117.304 34.38 117.919 34.4546 118.603 34.4546C119.237 34.4546 119.828 34.3986 120.375 34.2867C120.922 34.1748 121.401 33.9945 121.812 33.7458C122.222 33.497 122.539 33.1675 122.763 32.7571C122.999 32.3467 123.117 31.8431 123.117 31.2461C123.117 30.6244 122.987 30.1331 122.726 29.7725C122.464 29.3994 122.122 29.1134 121.7 28.9144C121.277 28.7154 120.817 28.56 120.319 28.4481C119.834 28.3237 119.368 28.1994 118.92 28.075C118.56 27.9755 118.23 27.8822 117.932 27.7952C117.633 27.7081 117.391 27.6024 117.204 27.4781C117.03 27.3413 116.943 27.1672 116.943 26.9558C116.943 26.8065 116.98 26.6822 117.055 26.5827C117.142 26.4708 117.26 26.3775 117.409 26.3029C117.559 26.2283 117.733 26.1723 117.932 26.135C118.143 26.0977 118.373 26.079 118.622 26.079C118.982 26.079 119.287 26.1226 119.536 26.2096C119.797 26.2967 119.996 26.421 120.133 26.5827C120.27 26.7319 120.338 26.9185 120.338 27.1423V27.2915H122.819C122.831 27.2667 122.838 27.2169 122.838 27.1423V26.8998C122.838 26.477 122.732 26.0977 122.52 25.7619C122.309 25.4137 122.017 25.1277 121.644 24.9038C121.271 24.6676 120.835 24.4935 120.338 24.3815C119.84 24.2572 119.306 24.195 118.734 24.195C118.124 24.195 117.552 24.2572 117.018 24.3815C116.495 24.4935 116.035 24.6738 115.637 24.9225C115.252 25.1712 114.947 25.4883 114.723 25.8738C114.499 26.2469 114.387 26.6884 114.387 27.1983C114.387 27.7206 114.493 28.1558 114.704 28.504C114.916 28.8398 115.189 29.1134 115.525 29.3248C115.873 29.5362 116.259 29.7103 116.682 29.8471C117.105 29.9715 117.527 30.0834 117.95 30.1829C118.41 30.3072 118.833 30.4192 119.219 30.5186C119.617 30.6181 119.934 30.7487 120.17 30.9104C120.419 31.072 120.543 31.3021 120.543 31.6006C120.543 31.8369 120.444 32.0296 120.245 32.1788C120.058 32.3281 119.822 32.4338 119.536 32.496C119.262 32.5457 118.976 32.5706 118.678 32.5706C118.342 32.5706 118.019 32.527 117.708 32.44C117.409 32.3529 117.167 32.2161 116.98 32.0296C116.794 31.8306 116.694 31.5757 116.682 31.2648V31.1156H114.182C114.17 31.1404 114.164 31.1778 114.164 31.2275V31.3767C114.164 31.8493 114.263 32.2721 114.462 32.6452C114.673 33.0183 114.972 33.3416 115.357 33.6152C115.743 33.8763 116.209 34.0815 116.756 34.2308Z" fill="currentColor"/>
  <path d="M97.7758 24.4188H95.6306V34.2308H98.2235V29.3248C98.2235 28.8895 98.267 28.5103 98.3541 28.1869C98.4536 27.8636 98.6028 27.59 98.8018 27.3662C99.0007 27.1423 99.2432 26.9806 99.5293 26.8812C99.8277 26.7692 100.17 26.7133 100.555 26.7133H101.357V24.3629C101.27 24.3256 101.14 24.2883 100.966 24.251C100.792 24.2012 100.599 24.1763 100.387 24.1763C99.9894 24.1763 99.6412 24.2572 99.3427 24.4188C99.0443 24.5805 98.7955 24.7981 98.5966 25.0717C98.3976 25.3329 98.2359 25.6251 98.1116 25.9485H97.981L97.7758 24.4188Z" fill="currentColor"/>
  <path fill-rule="evenodd" clip-rule="evenodd" d="M85.6083 33.9136C86.3544 34.2743 87.2622 34.4546 88.3317 34.4546C89.4261 34.4546 90.3401 34.2743 91.0738 33.9136C91.82 33.5406 92.3858 32.9747 92.7713 32.2161C93.1568 31.4451 93.3496 30.4813 93.3496 29.3248C93.3496 28.1434 93.1568 27.1796 92.7713 26.4335C92.3858 25.6749 91.82 25.1153 91.0738 24.7546C90.3401 24.3815 89.4261 24.195 88.3317 24.195C87.2622 24.195 86.3544 24.3815 85.6083 24.7546C84.8621 25.1153 84.2963 25.6749 83.9108 26.4335C83.5252 27.1796 83.3325 28.1434 83.3325 29.3248C83.3325 30.4813 83.5252 31.4451 83.9108 32.2161C84.2963 32.9747 84.8621 33.5406 85.6083 33.9136ZM89.6934 32.1229C89.3577 32.3343 88.9038 32.44 88.3317 32.44C87.7721 32.44 87.3182 32.3343 86.97 32.1229C86.6342 31.9115 86.3855 31.5881 86.2238 31.1529C86.0622 30.7176 85.9813 30.1829 85.9813 29.5486V29.101C85.9813 28.4667 86.0622 27.932 86.2238 27.4967C86.3855 27.0615 86.6342 26.7381 86.97 26.5267C87.3182 26.3029 87.7721 26.191 88.3317 26.191C88.9038 26.191 89.3577 26.3029 89.6934 26.5267C90.0417 26.7381 90.2966 27.0615 90.4583 27.4967C90.6199 27.932 90.7008 28.4667 90.7008 29.101V29.5486C90.7008 30.1829 90.6199 30.7176 90.4583 31.1529C90.2966 31.5881 90.0417 31.9115 89.6934 32.1229Z" fill="currentColor"/>
  <path d="M74.4301 33.9137C75.1389 34.2743 76.0156 34.4546 77.0603 34.4546C77.7318 34.4546 78.3412 34.3676 78.8883 34.1935C79.4355 34.0194 79.9019 33.7644 80.2874 33.4287C80.6853 33.0929 80.9838 32.6763 81.1828 32.1788C81.3942 31.6814 81.4999 31.1156 81.4999 30.4813H79.0376C79.0376 30.9042 78.963 31.2648 78.8137 31.5633C78.6645 31.8617 78.4469 32.0856 78.1608 32.2348C77.8872 32.384 77.539 32.4587 77.1162 32.4587C76.5939 32.4587 76.1711 32.3529 75.8478 32.1415C75.5244 31.9177 75.2819 31.5881 75.1203 31.1529C74.971 30.7176 74.8964 30.1829 74.8964 29.5487V29.1196C74.8964 28.4729 74.971 27.932 75.1203 27.4967C75.2695 27.0615 75.4996 26.7319 75.8105 26.5081C76.1214 26.2842 76.5255 26.1723 77.023 26.1723C77.4458 26.1723 77.794 26.2469 78.0676 26.3962C78.3536 26.5454 78.565 26.763 78.7018 27.049C78.8386 27.3351 78.907 27.7019 78.907 28.1496H81.4999C81.4999 27.4781 81.3942 26.8998 81.1828 26.4148C80.9838 25.9174 80.6853 25.5008 80.2874 25.165C79.8894 24.8292 79.4169 24.5805 78.8697 24.4188C78.3349 24.2572 77.7318 24.1763 77.0603 24.1763C76.0281 24.1763 75.1514 24.3629 74.4301 24.736C73.7212 25.109 73.1803 25.6749 72.8072 26.4335C72.4465 27.1796 72.2662 28.1434 72.2662 29.3248C72.2662 30.4813 72.4465 31.4451 72.8072 32.2162C73.1803 32.9747 73.7212 33.5406 74.4301 33.9137Z" fill="currentColor"/>
  <path fill-rule="evenodd" clip-rule="evenodd" d="M63.2194 33.9136C63.9531 34.2743 64.8609 34.4546 65.9429 34.4546C66.6144 34.4546 67.2238 34.38 67.7709 34.2308C68.3306 34.0691 68.8093 33.839 69.2073 33.5406C69.6052 33.2297 69.9161 32.8442 70.14 32.384C70.3638 31.9239 70.4757 31.3829 70.4757 30.7611H67.9388C67.9388 31.0472 67.8891 31.3021 67.7896 31.526C67.6901 31.7498 67.5533 31.9363 67.3792 32.0856C67.2051 32.2348 66.9937 32.3467 66.745 32.4213C66.5087 32.496 66.2413 32.5333 65.9429 32.5333C65.3957 32.5333 64.9542 32.44 64.6184 32.2535C64.2951 32.0545 64.0526 31.756 63.8909 31.3581C63.7417 30.9601 63.6547 30.4751 63.6298 29.9031H70.4757V29.2315C70.4757 28.0626 70.3016 27.1112 69.9534 26.3775C69.6052 25.6313 69.0891 25.0842 68.4052 24.736C67.7212 24.3753 66.8818 24.195 65.8869 24.195C64.8298 24.195 63.9345 24.3815 63.2007 24.7546C62.4795 25.1153 61.9323 25.6749 61.5592 26.4335C61.1861 27.1796 60.9996 28.1434 60.9996 29.3248C60.9996 30.4938 61.1861 31.4576 61.5592 32.2161C61.9323 32.9747 62.4857 33.5406 63.2194 33.9136ZM67.8082 28.2615H63.6671C63.7293 27.7765 63.8412 27.3786 64.0029 27.0677C64.177 26.7444 64.4195 26.5081 64.7304 26.3588C65.0537 26.1972 65.4516 26.1163 65.9242 26.1163C66.2102 26.1163 66.4652 26.1599 66.689 26.2469C66.9253 26.3215 67.1243 26.4459 67.2859 26.62C67.4476 26.7941 67.572 27.0179 67.659 27.2915C67.7585 27.5651 67.8082 27.8885 67.8082 28.2615Z" fill="currentColor"/>
  <path fill-rule="evenodd" clip-rule="evenodd" d="M47.9279 21.4342V34.2308H50.7073V29.5673H54.2702L56.5273 34.2308H59.6052L56.9937 29.101C57.7025 28.7652 58.2435 28.2802 58.6166 27.646C58.9896 26.9993 59.1762 26.2594 59.1762 25.4262C59.1762 24.6427 59.0207 23.9525 58.7098 23.3556C58.3989 22.7462 57.9264 22.2737 57.2921 21.9379C56.6704 21.6021 55.8869 21.4342 54.9418 21.4342H47.9279ZM54.5687 27.3662H50.7073V23.6913H54.5687C54.9542 23.6913 55.2775 23.7597 55.5387 23.8965C55.7998 24.0333 55.9988 24.2385 56.1356 24.5121C56.2724 24.7733 56.3408 25.0904 56.3408 25.4635C56.3408 26.048 56.1854 26.5143 55.8745 26.8625C55.5636 27.1983 55.1283 27.3662 54.5687 27.3662Z" fill="currentColor"/>
  <path d="M73.5178 18.4931C72.5229 18.4931 71.7332 18.2195 71.1488 17.6723C70.5643 17.1251 70.272 16.2422 70.272 15.0235V8.45731H72.8649V14.5944C72.8649 14.9178 72.9022 15.1914 72.9768 15.4152C73.0514 15.6266 73.1572 15.8007 73.2939 15.9375C73.4432 16.0743 73.6235 16.1738 73.8349 16.236C74.0463 16.2981 74.2826 16.3292 74.5438 16.3292C74.9293 16.3292 75.2775 16.236 75.5884 16.0494C75.8993 15.8629 76.1418 15.608 76.3159 15.2846C76.49 14.9489 76.577 14.5758 76.577 14.1654V8.45731H79.1699V18.2692H77.0434L76.8568 16.9262H76.7263C76.49 17.2371 76.2102 17.5106 75.8868 17.7469C75.5759 17.9832 75.2215 18.1635 74.8236 18.2879C74.4256 18.4247 73.9904 18.4931 73.5178 18.4931Z" fill="currentColor"/>
  <path fill-rule="evenodd" clip-rule="evenodd" d="M63.0477 18.4931C61.9782 18.4931 61.0704 18.3128 60.3243 17.9521C59.5781 17.579 59.0123 17.0132 58.6268 16.2546C58.2412 15.4836 58.0485 14.5198 58.0485 13.3633C58.0485 12.1819 58.2412 11.2181 58.6268 10.4719C59.0123 9.71333 59.5781 9.15371 60.3243 8.79307C61.0704 8.41999 61.9782 8.23345 63.0477 8.23345C64.1421 8.23345 65.0561 8.41999 65.7898 8.79307C66.536 9.15371 67.1018 9.71333 67.4873 10.4719C67.8729 11.2181 68.0656 12.1819 68.0656 13.3633C68.0656 14.5198 67.8729 15.4836 67.4873 16.2546C67.1018 17.0132 66.536 17.579 65.7898 17.9521C65.0561 18.3128 64.1421 18.4931 63.0477 18.4931ZM63.0477 16.4785C63.6198 16.4785 64.0737 16.3728 64.4095 16.1613C64.7577 15.9499 65.0126 15.6266 65.1743 15.1913C65.3359 14.7561 65.4168 14.2213 65.4168 13.5871V13.1394C65.4168 12.5052 65.3359 11.9704 65.1743 11.5352C65.0126 11.0999 64.7577 10.7766 64.4095 10.5652C64.0737 10.3413 63.6198 10.2294 63.0477 10.2294C62.4881 10.2294 62.0342 10.3413 61.686 10.5652C61.3502 10.7766 61.1015 11.0999 60.9398 11.5352C60.7782 11.9704 60.6973 12.5052 60.6973 13.1394V13.5871C60.6973 14.2213 60.7782 14.7561 60.9398 15.1913C61.1015 15.6266 61.3502 15.9499 61.686 16.1613C62.0342 16.3728 62.4881 16.4785 63.0477 16.4785Z" fill="currentColor"/>
  <path d="M51.0804 18.2692V7.80442H46.9766V5.47269H58.001V7.80442H53.8785V18.2692H51.0804Z" fill="currentColor"/>
</svg>
