<svg width="201" height="200" viewBox="0 0 201 200" fill="none" xmlns="http://www.w3.org/2000/svg">
  <path d="M133.833 87.5C133.833 94.4 130.1 100 125.5 100C120.9 100 117.167 94.4 117.167 87.5C117.167 80.6 120.9 75 125.5 75C130.1 75 133.833 80.6 133.833 87.5Z" fill="white"/>
  <path d="M75.5 100C80.1024 100 83.8334 94.4036 83.8334 87.5C83.8334 80.5964 80.1024 75 75.5 75C70.8976 75 67.1667 80.5964 67.1667 87.5C67.1667 94.4036 70.8976 100 75.5 100Z" fill="white"/>
  <path d="M183.833 164.358V102.508C183.833 55.0832 146.525 16.6665 100.5 16.6665C54.475 16.6665 17.1667 55.0998 17.1667 102.5V164.358C17.1667 175.375 28.425 182.542 38 177.617C41.7854 175.663 46.0305 174.776 50.2814 175.049C54.5322 175.322 58.6289 176.745 62.1334 179.167C66.0615 181.883 70.7241 183.338 75.5 183.338C80.276 183.338 84.9386 181.883 88.8667 179.167L91.8083 177.15C94.3654 175.39 97.3962 174.448 100.5 174.448C103.604 174.448 106.635 175.39 109.192 177.15L112.133 179.167C116.061 181.883 120.724 183.338 125.5 183.338C130.276 183.338 134.939 181.883 138.867 179.167C142.372 176.744 146.47 175.319 150.723 175.046C154.975 174.773 159.222 175.662 163.008 177.617C172.575 182.542 183.833 175.375 183.833 164.358Z" stroke="white" stroke-width="10"/>
</svg>
